<?xml version="1.0" standalone="no"?>
<!DOCTYPE svg PUBLIC "-//W3C//DTD SVG 20010904//EN"
 "http://www.w3.org/TR/2001/REC-SVG-20010904/DTD/svg10.dtd">
<svg version="1.0" xmlns="http://www.w3.org/2000/svg"
 width="434.000000pt" height="708.000000pt" viewBox="0 0 434.000000 708.000000"
 preserveAspectRatio="xMidYMid meet">

<g transform="translate(0.000000,708.000000) scale(0.100000,-0.100000)"
fill="#000000" stroke="none">
<path d="M2492 6402 c-7 -2 -12 -10 -12 -18 0 -9 -5 -12 -12 -8 -10 5 -10 3 0
-7 11 -12 14 -12 21 0 5 8 17 15 28 16 10 0 18 5 18 10 0 10 -24 14 -43 7z"/>
<path d="M2510 6345 c7 -8 7 -14 1 -17 -5 -1 -12 -14 -14 -28 -3 -14 -6 -29
-7 -35 -5 -24 1 -27 21 -9 16 15 21 16 19 4 -5 -36 1 -59 18 -62 17 -4 72 43
72 63 0 16 -26 39 -47 40 -10 0 -13 3 -5 6 19 8 14 23 -9 23 -11 0 -18 4 -15
9 3 5 -5 11 -19 13 -20 4 -23 2 -15 -7z m60 -102 c0 -10 -4 -14 -8 -8 -4 6
-11 13 -16 18 -5 4 -2 7 7 7 10 0 17 -8 17 -17z"/>
<path d="M2608 6195 c-24 -32 -23 -45 5 -45 26 0 34 30 8 31 -14 0 -13 1 1 7
10 4 14 12 10 18 -5 8 -13 4 -24 -11z"/>
<path d="M1975 6063 c-27 -3 -53 -9 -57 -16 -5 -8 -13 -8 -30 0 -15 7 -42 8
-76 2 -42 -6 -59 -16 -94 -51 -40 -40 -130 -120 -153 -136 -78 -55 -124 -90
-142 -109 -12 -13 -29 -23 -38 -23 -8 0 -15 -7 -15 -15 0 -8 -6 -12 -14 -9 -7
3 -20 -1 -28 -8 -41 -37 -120 -68 -174 -68 -55 0 -57 1 -105 53 -27 28 -49 55
-49 59 0 3 -15 24 -32 46 -18 23 -46 57 -62 76 -15 20 -32 36 -37 36 -4 0 -19
-11 -33 -25 -14 -14 -27 -25 -29 -25 -3 0 -50 -44 -105 -97 -55 -54 -131 -126
-169 -160 -37 -34 -105 -98 -151 -143 -46 -44 -86 -80 -88 -80 -9 0 -94 -92
-94 -102 0 -6 9 -12 20 -15 11 -3 20 -9 20 -14 0 -5 6 -9 14 -9 7 0 17 -10 21
-22 4 -14 8 -18 12 -10 6 14 73 17 73 2 0 -20 28 -9 51 20 24 29 49 40 49 20
0 -5 10 -10 23 -10 13 0 29 -6 36 -12 10 -11 11 -8 6 15 -6 21 -4 27 9 27 9 0
16 -7 16 -15 0 -8 7 -15 15 -15 8 0 15 5 15 11 0 11 17 9 67 -6 18 -6 23 -3
23 10 0 15 3 15 15 5 13 -11 18 -10 30 6 11 15 16 17 26 7 20 -20 30 -15 23
12 -5 20 -2 25 13 25 11 0 28 9 37 19 9 10 25 17 35 14 23 -6 50 25 32 37 -16
9 -4 15 29 15 18 0 26 -6 28 -22 2 -13 -1 -23 -7 -23 -6 0 -11 -7 -11 -16 0
-8 -14 -49 -31 -90 -17 -41 -29 -77 -26 -80 8 -9 97 7 97 17 0 5 11 9 24 9 22
0 23 -3 21 -45 -3 -44 -3 -45 26 -45 19 0 29 -5 29 -15 0 -11 -11 -15 -38 -15
-36 0 -38 -2 -37 -32 0 -26 -5 -33 -25 -39 -14 -4 -18 -8 -10 -10 8 -1 20 -3
25 -4 6 -2 15 -3 22 -4 6 0 9 -10 6 -21 -4 -15 -14 -20 -39 -20 -27 0 -32 3
-27 17 6 15 5 16 -9 3 -12 -12 -13 -18 -4 -29 9 -12 5 -13 -29 -8 -22 4 -48 7
-57 7 -28 0 -22 57 13 145 22 56 21 65 -4 65 -14 0 -27 -3 -29 -8 -1 -4 -38
-24 -80 -45 -80 -39 -100 -41 -158 -12 -14 7 -38 18 -55 25 -16 6 -43 18 -59
26 -20 10 -32 11 -41 4 -14 -11 -61 -4 -71 11 -3 5 2 6 10 3 9 -3 16 -1 16 5
0 13 -8 14 -77 11 -29 -1 -67 3 -85 8 -18 6 -48 13 -67 16 l-34 6 8 -37 c4
-21 11 -60 15 -88 12 -75 32 -167 41 -190 4 -11 10 -38 12 -60 3 -22 13 -80
22 -130 9 -49 21 -110 25 -135 5 -25 16 -81 25 -125 9 -44 19 -107 22 -140 3
-33 9 -64 14 -69 5 -6 9 -31 9 -57 0 -31 5 -49 14 -52 10 -4 13 -17 9 -47 -5
-32 -1 -48 15 -69 12 -17 17 -33 12 -42 -10 -18 0 -129 11 -129 5 0 9 -24 9
-52 0 -29 4 -69 10 -88 5 -19 14 -66 19 -105 17 -116 29 -175 69 -329 6 -23 8
-96 5 -178 l-6 -140 49 7 c56 8 94 28 94 50 0 21 16 19 40 -5 13 -13 26 -18
33 -13 14 10 115 32 175 40 23 3 42 9 42 13 0 4 12 10 28 13 116 24 141 29
172 31 71 6 145 18 155 26 6 4 28 11 50 15 22 4 46 11 52 17 7 6 14 7 14 2 9
-48 -5 -74 -40 -74 -12 0 -21 -4 -21 -10 0 -5 -10 -10 -22 -10 -13 -1 -34 -7
-48 -15 -14 -8 -35 -14 -47 -15 -13 0 -23 -4 -23 -8 0 -4 -26 -16 -57 -27 -32
-11 -60 -22 -63 -25 -7 -7 -44 -24 -102 -47 -27 -10 -48 -21 -48 -25 0 -5 -9
-8 -20 -8 -11 0 -20 -4 -20 -10 0 -5 -5 -10 -11 -10 -12 0 -81 -31 -89 -39 -4
-5 -140 -77 -197 -105 -30 -14 -29 -34 0 -45 21 -8 26 -20 35 -83 7 -40 15
-135 18 -210 7 -149 3 -168 -42 -168 -12 0 -25 -4 -28 -9 -3 -4 -19 -11 -36
-15 -17 -3 -59 -19 -93 -36 -34 -16 -68 -30 -75 -30 -46 0 -127 -63 -138 -107
-4 -13 -10 -23 -15 -23 -5 0 -9 -9 -9 -20 0 -11 -3 -20 -8 -20 -4 0 -13 -14
-20 -30 -8 -17 -19 -36 -26 -43 -6 -6 -20 -29 -30 -50 -10 -22 -25 -47 -33
-57 -9 -10 -24 -41 -34 -70 -17 -47 -17 -67 -9 -219 10 -159 20 -272 37 -391
7 -47 11 -55 31 -58 12 -2 22 -8 22 -13 0 -5 5 -9 12 -9 6 0 30 -9 52 -19 77
-36 157 -71 162 -71 6 0 49 -18 107 -45 37 -18 70 -37 77 -46 3 -4 32 -18 65
-33 33 -15 76 -36 95 -47 19 -11 43 -23 53 -26 9 -3 17 -9 17 -14 0 -5 5 -9
11 -9 5 0 36 -12 67 -26 31 -14 71 -32 87 -39 17 -7 95 -45 175 -84 80 -39
153 -71 163 -71 9 0 17 -4 17 -10 0 -5 7 -10 15 -10 14 0 85 -30 95 -40 9 -9
85 -51 103 -57 9 -3 17 -9 17 -14 0 -5 9 -9 20 -9 11 0 43 -11 72 -25 28 -14
58 -25 65 -25 7 0 13 -4 13 -9 0 -5 11 -12 25 -15 14 -4 25 -11 25 -16 0 -6 9
-10 19 -10 11 0 21 -4 23 -8 4 -10 171 -92 187 -92 6 0 11 -4 11 -10 0 -5 9
-10 20 -10 11 0 20 -3 20 -7 0 -5 21 -17 48 -27 26 -11 50 -24 54 -30 4 -6 40
-10 80 -10 62 0 81 4 128 29 30 17 57 33 58 38 2 4 12 7 23 7 10 0 19 4 19 10
0 5 11 12 25 16 14 3 25 10 25 15 0 5 6 9 14 9 17 0 80 32 84 43 2 4 15 7 28
7 13 0 24 5 24 10 0 6 6 10 13 10 6 0 57 22 112 50 55 27 108 50 118 50 9 0
17 5 17 10 0 6 6 10 14 10 8 0 29 8 48 17 59 29 68 33 79 33 7 0 27 11 45 25
18 14 37 25 43 25 6 0 11 5 11 10 0 6 11 10 25 10 14 0 25 3 25 8 0 4 21 16
48 26 26 11 49 22 52 26 3 3 25 14 50 25 25 11 69 34 97 52 80 51 144 83 164
83 9 0 19 3 21 8 2 4 19 15 38 25 19 10 51 26 70 37 57 30 102 50 116 50 7 0
14 3 16 8 6 13 87 62 103 62 8 0 15 4 15 10 0 5 11 12 25 16 14 3 25 10 25 15
0 5 7 9 15 9 8 0 15 5 15 10 0 6 9 10 19 10 11 0 22 4 26 9 3 5 19 12 35 16
17 4 30 11 30 16 0 5 11 9 25 9 14 0 25 4 25 10 0 5 11 12 25 16 14 3 25 10
25 15 0 5 8 9 19 9 14 0 23 14 36 52 14 43 17 94 18 278 0 291 -5 323 -67 395
-14 17 -34 49 -44 72 -9 24 -20 43 -24 43 -5 0 -8 6 -8 14 0 8 -18 34 -40 57
-22 24 -40 52 -40 64 0 21 -4 24 -125 81 -33 16 -61 32 -63 37 -2 4 -9 7 -15
7 -12 0 -118 50 -127 60 -3 3 -24 14 -47 24 -24 11 -43 24 -43 30 0 26 22 237
30 296 6 36 12 106 15 155 2 50 10 145 17 212 12 109 16 124 36 139 40 28 126
118 144 151 22 38 23 63 3 63 -9 0 -15 10 -15 26 0 19 -4 25 -15 20 -9 -3 -19
3 -26 16 -7 13 -14 17 -18 10 -10 -17 -81 -3 -81 15 0 9 6 13 14 10 8 -3 16
-1 19 6 6 18 -5 57 -14 51 -5 -3 -16 2 -25 11 -14 14 -15 20 -4 40 16 29 36
39 44 20 3 -8 -3 -17 -15 -20 -10 -4 -19 -13 -19 -21 0 -17 31 -19 48 -2 10
10 15 10 22 -2 6 -9 10 -10 10 -3 0 6 -6 18 -14 26 -8 7 -11 19 -7 26 5 7 12
3 21 -14 7 -14 17 -25 21 -25 15 0 20 21 9 35 -9 11 -9 15 -1 15 6 0 11 5 11
10 0 6 -6 10 -14 10 -7 0 -19 7 -26 15 -10 13 -9 15 9 15 11 0 21 -4 21 -8 0
-11 38 -8 50 4 5 5 11 86 13 179 3 94 7 186 10 205 3 19 6 80 7 135 1 55 6
109 10 120 4 11 11 60 15 108 3 48 11 102 16 120 5 17 9 62 9 99 0 39 4 68 10
68 6 0 10 29 10 68 0 37 4 103 9 147 5 44 13 137 16 208 8 138 8 138 -48 113
-18 -8 -47 -20 -64 -27 -18 -8 -33 -17 -33 -20 0 -12 -48 -16 -65 -6 -12 6
-16 6 -11 -1 3 -6 -3 -14 -15 -17 -23 -8 -42 11 -34 32 2 7 0 15 -6 19 -6 3
-8 12 -5 20 3 8 1 14 -5 14 -6 0 -7 5 -4 10 4 6 1 17 -5 25 -9 11 -9 15 -1 15
6 0 11 11 11 25 0 14 -4 25 -10 25 -5 0 -10 -9 -10 -20 0 -10 -9 -24 -20 -30
-14 -7 -20 -7 -20 0 0 18 -18 11 -25 -10 -3 -11 -15 -20 -25 -20 -13 0 -17 5
-13 20 5 19 -4 25 -34 21 -7 -1 -13 7 -13 19 0 11 -4 20 -10 20 -5 0 -10 5
-10 11 0 11 44 7 95 -8 17 -5 18 -4 7 10 -11 13 -9 16 15 24 l28 10 -28 6
c-15 4 -27 14 -27 22 0 8 -4 15 -10 15 -5 0 -10 -6 -10 -14 0 -9 -7 -12 -20
-9 -14 4 -20 0 -20 -11 0 -10 -6 -13 -15 -10 -8 4 -15 12 -15 20 0 7 -22 24
-50 36 -27 13 -50 26 -50 29 0 4 20 12 44 18 24 6 49 17 56 26 7 8 20 15 29
15 35 1 86 70 51 70 -5 0 -10 6 -10 14 0 8 -4 16 -8 18 -5 2 -28 37 -52 78
-24 41 -47 77 -52 78 -4 2 -8 10 -8 19 0 17 -35 72 -58 91 -21 16 -45 16 -39
-1 3 -8 -6 -18 -23 -24 -21 -8 -30 -8 -33 1 -2 6 -2 0 0 -13 3 -20 1 -23 -16
-18 -13 3 -21 0 -21 -7 0 -16 -66 -50 -80 -41 -7 4 -14 -1 -17 -14 -4 -14 -12
-20 -29 -19 -23 2 -28 9 -25 34 1 12 -51 28 -81 25 -9 -1 -19 7 -23 19 -3 11
-11 20 -17 20 -13 0 -105 78 -191 163 -33 31 -61 57 -63 57 -2 0 -13 9 -24 20
-18 18 -23 19 -35 6 -8 -8 -15 -21 -15 -30 0 -16 -13 -48 -67 -166 -19 -41
-38 -84 -43 -95 -26 -61 -65 -140 -72 -143 -4 -2 -8 -18 -8 -36 0 -22 -5 -33
-15 -33 -8 0 -15 5 -15 10 0 5 -11 18 -25 29 -14 11 -25 26 -25 34 0 8 -11 27
-25 42 -17 18 -25 38 -25 62 0 50 -14 68 -40 53 -11 -7 -27 -13 -35 -13 -8 0
-15 -6 -15 -14 0 -8 -7 -16 -15 -20 -8 -3 -15 -15 -15 -26 0 -13 -7 -20 -20
-20 -11 0 -20 -4 -20 -10 0 -5 -7 -10 -15 -10 -8 0 -15 5 -15 10 0 14 -43 13
-58 -2 -8 -8 -12 -8 -12 -1 0 6 -19 13 -42 16 -78 9 -133 28 -157 54 -23 24
-23 26 -7 54 9 15 60 73 114 128 108 111 162 174 162 190 0 11 -139 12 -255 4z
m1025 -368 c0 -8 -4 -15 -10 -15 -5 0 -10 7 -10 15 0 8 5 15 10 15 6 0 10 -7
10 -15z m-600 -45 c0 -5 -4 -10 -9 -10 -6 0 -13 5 -16 10 -3 6 1 10 9 10 9 0
16 -4 16 -10z m800 -30 c0 -5 -5 -10 -11 -10 -5 0 -7 5 -4 10 3 6 8 10 11 10
2 0 4 -4 4 -10z m-1133 -16 c-3 -3 -12 -4 -19 -1 -8 3 -5 6 6 6 11 1 17 -2 13
-5z m-444 -161 c-7 -2 -13 -11 -13 -18 0 -12 -40 -29 -49 -20 -7 8 41 45 58
44 10 0 12 -2 4 -6z m-758 -13 c3 -5 -1 -10 -9 -10 -9 0 -16 5 -16 10 0 6 4
10 9 10 6 0 13 -4 16 -10z m1360 -30 c3 -5 1 -10 -4 -10 -6 0 -11 5 -11 10 0
6 2 10 4 10 3 0 8 -4 11 -10z m-1915 -76 c0 -9 -7 -14 -17 -12 -25 5 -28 28
-4 28 12 0 21 -6 21 -16z m337 -46 c-3 -8 -6 -5 -6 6 -1 11 2 17 5 13 3 -3 4
-12 1 -19z m2827 -5 c-5 -5 -12 -12 -16 -18 -4 -6 -8 -2 -8 8 0 9 7 17 17 17
9 0 12 -3 7 -7z m-284 -83 c0 -5 -2 -10 -4 -10 -3 0 -8 5 -11 10 -3 6 -1 10 4
10 6 0 11 -4 11 -10z m390 0 c0 -5 -7 -10 -15 -10 -8 0 -15 5 -15 10 0 6 7 10
15 10 8 0 15 -4 15 -10z m-1060 -25 c0 -8 5 -15 11 -15 6 0 8 -9 4 -20 -3 -11
-3 -20 2 -21 4 0 18 -2 31 -5 12 -2 22 1 22 6 0 6 7 10 15 10 16 0 19 -18 7
-37 -8 -13 -82 -7 -82 7 0 4 -6 8 -12 7 -7 0 -33 1 -58 1 l-44 2 39 40 c40 41
65 51 65 25z m290 -55 c0 -5 -5 -10 -11 -10 -5 0 -7 5 -4 10 3 6 8 10 11 10 2
0 4 -4 4 -10z m308 -39 c6 -17 22 -13 22 5 0 14 2 14 16 3 12 -9 15 -25 12
-60 -5 -52 13 -79 52 -79 11 0 20 -4 20 -10 0 -17 38 -11 43 8 4 13 5 13 6 -4
1 -15 -7 -24 -21 -28 -18 -5 -20 -8 -9 -15 7 -5 10 -14 7 -20 -4 -6 0 -11 8
-11 11 0 16 -9 16 -30 0 -19 5 -30 14 -30 10 0 14 -12 13 -40 -2 -34 -5 -40
-20 -36 -12 3 -19 -3 -24 -22 -7 -30 -11 -36 -77 -102 -28 -28 -56 -50 -63
-50 -11 0 -16 -14 -15 -40 0 -3 -6 -11 -14 -18 -12 -11 -15 -10 -20 2 -9 23
-49 19 -67 -6 -16 -23 -16 -23 -16 10 -1 17 4 32 9 32 6 0 10 5 10 10 0 6 -9
10 -20 10 -13 0 -20 -7 -20 -19 0 -10 -7 -21 -15 -25 -11 -4 -15 1 -15 19 0
14 -4 25 -10 25 -5 0 -10 -10 -10 -22 0 -18 -2 -20 -12 -9 -11 10 -9 16 10 31
19 16 21 22 11 44 -10 22 -9 28 8 43 28 25 37 57 19 72 -12 10 -13 17 -4 31 9
14 8 21 -5 35 -15 14 -21 15 -47 3 -32 -14 -37 -23 -17 -32 6 -3 1 -3 -13 0
-14 4 -25 7 -25 8 0 0 -5 11 -12 22 -9 16 -9 24 0 33 8 8 8 11 -1 11 -7 0 -12
-5 -12 -11 0 -8 -5 -7 -16 2 -10 8 -18 9 -22 2 -4 -6 -18 -13 -32 -17 -14 -3
-19 -3 -12 0 17 8 15 44 -2 44 -7 0 -16 -10 -20 -22 -5 -20 -8 -21 -17 -8 -8
11 -12 12 -16 2 -2 -6 -9 -9 -15 -6 -6 4 -5 10 3 15 12 8 11 11 -1 19 -10 6
-11 10 -2 10 6 0 12 5 12 10 0 6 -11 10 -25 10 -18 0 -25 5 -25 19 0 11 6 22
13 24 6 3 -5 3 -25 0 -37 -5 -37 -5 -25 20 7 15 14 22 15 17 2 -6 12 -10 23
-10 14 0 19 7 19 25 0 20 5 25 25 25 14 0 25 -5 25 -10 0 -6 8 -5 20 2 17 11
22 10 30 -2 8 -12 11 -11 16 8 4 15 14 22 30 22 13 0 24 5 24 11 0 8 5 8 15
-1 12 -10 15 -9 15 5 0 13 6 16 26 12 15 -2 31 2 40 11 13 13 17 13 24 2 7
-11 11 -8 20 11 11 24 16 25 78 24 39 -1 68 -7 70 -14z m-458 -1 c0 -5 -9 -10
-20 -10 -11 0 -20 5 -20 10 0 6 9 10 20 10 11 0 20 -4 20 -10z m50 -25 c0 -8
-7 -15 -15 -15 -8 0 -15 7 -15 15 0 8 7 15 15 15 8 0 15 -7 15 -15z m110 11
c0 -11 -19 -15 -25 -6 -3 5 1 10 9 10 9 0 16 -2 16 -4z m-490 -16 c0 -5 -10
-10 -22 -10 -19 0 -20 2 -8 10 19 13 30 13 30 0z m-80 -15 c10 -12 10 -15 -4
-15 -9 0 -16 7 -16 15 0 8 2 15 4 15 2 0 9 -7 16 -15z m514 0 c-4 -8 -11 -15
-16 -15 -6 0 -5 6 2 15 7 8 14 15 16 15 2 0 1 -7 -2 -15z m-1734 1 c0 -2 3
-12 6 -21 6 -14 3 -14 -20 -4 -31 14 -34 29 -6 29 11 0 20 -2 20 -4z m1610
-26 c0 -5 -4 -10 -10 -10 -5 0 -10 5 -10 10 0 6 5 10 10 10 6 0 10 -4 10 -10z
m670 -114 c0 -3 -4 -8 -10 -11 -5 -3 -10 -1 -10 4 0 6 5 11 10 11 6 0 10 -2
10 -4z m-1003 -92 c-3 -3 -12 -4 -19 -1 -8 3 -5 6 6 6 11 1 17 -2 13 -5z m523
-14 c0 -5 -4 -10 -10 -10 -5 0 -10 5 -10 10 0 6 5 10 10 10 6 0 10 -4 10 -10z
m120 -20 c0 -5 -4 -10 -10 -10 -5 0 -10 5 -10 10 0 6 5 10 10 10 6 0 10 -4 10
-10z m-26 -38 c-6 -4 -13 -15 -17 -24 -6 -16 -27 -26 -27 -13 0 10 35 45 45
45 6 0 6 -3 -1 -8z m26 -47 c0 -18 -5 -25 -19 -25 -17 0 -18 3 -8 25 15 32 27
32 27 0z m-96 -60 c3 -9 0 -15 -9 -15 -8 0 -15 7 -15 15 0 8 4 15 9 15 5 0 11
-7 15 -15z m-1124 -105 c0 -20 15 -28 22 -11 2 5 9 3 16 -5 10 -11 10 -14 -2
-14 -7 0 -16 -7 -20 -15 -9 -24 -26 -17 -26 9 0 14 -4 28 -10 31 -15 9 -12 25
5 25 8 0 15 -9 15 -20z m1231 -53 c-13 -13 -26 -3 -16 12 3 6 11 8 17 5 6 -4
6 -10 -1 -17z m-1161 -12 c0 -10 -10 -15 -27 -15 l-28 0 25 14 c14 8 26 14 28
15 1 1 2 -6 2 -14z m1080 -11 c0 -11 -5 -14 -16 -10 -9 3 -18 6 -20 6 -3 0 -2
5 1 10 10 16 35 12 35 -6z m-1250 -24 c0 -5 -5 -10 -11 -10 -5 0 -7 5 -4 10 3
6 8 10 11 10 2 0 4 -4 4 -10z m150 -71 c0 -11 -4 -18 -10 -14 -5 3 -7 12 -3
20 7 21 13 19 13 -6z m1100 -8 c0 -9 -24 -21 -41 -21 -5 0 -9 7 -9 15 0 9 9
15 25 15 14 0 25 -4 25 -9z m0 -102 c0 -14 -17 -10 -23 5 -4 10 -1 13 9 9 7
-3 14 -9 14 -14z m-2062 -273 c15 -8 49 -17 75 -21 26 -4 47 -11 47 -16 0 -5
9 -9 19 -9 12 0 18 -7 17 -17 0 -10 6 -18 14 -18 8 0 14 6 12 14 -5 23 18 42
38 31 10 -6 27 -10 37 -10 27 0 73 -23 73 -36 0 -17 -23 -23 -65 -18 -24 3
-46 -1 -61 -11 -30 -19 -73 -19 -80 0 -5 11 -10 13 -19 5 -9 -8 -15 -7 -18 2
-4 10 -7 10 -15 -1 -7 -10 -14 -10 -30 -2 -11 6 -49 11 -84 11 -35 0 -68 4
-74 9 -5 4 -49 14 -99 21 -111 15 -114 16 -122 36 -6 17 13 34 52 45 39 10
256 -1 283 -15z m-361 -18 c-3 -8 -6 -5 -6 6 -1 11 2 17 5 13 3 -3 4 -12 1
-19z m1643 -82 c0 -3 -4 -8 -10 -11 -5 -3 -10 -1 -10 4 0 6 5 11 10 11 6 0 10
-2 10 -4z m-90 -86 c0 -5 -9 -10 -20 -10 -11 0 -20 5 -20 10 0 6 9 10 20 10
11 0 20 -4 20 -10z m-1340 -70 c0 -5 -4 -10 -10 -10 -5 0 -10 5 -10 10 0 6 5
10 10 10 6 0 10 -4 10 -10z m3130 -35 c0 -2 -9 -9 -19 -14 -14 -8 -20 -7 -25
4 -4 11 2 15 19 15 14 0 25 -2 25 -5z m50 -10 c10 -12 10 -15 -4 -15 -9 0 -16
7 -16 15 0 8 2 15 4 15 2 0 9 -7 16 -15z m-1837 -27 c6 -22 5 -22 -8 -4 -17
22 -20 40 -6 32 5 -3 11 -16 14 -28z m1877 -27 c0 -6 -5 -13 -10 -16 -15 -9
-43 3 -35 15 8 13 45 13 45 1z m-153 -77 c-3 -3 -12 -4 -19 -1 -8 3 -5 6 6 6
11 1 17 -2 13 -5z m-17 -61 c0 -7 -11 -13 -26 -13 -21 0 -24 3 -15 13 6 8 18
14 26 14 8 0 15 -6 15 -14z m-1963 -39 c-3 -3 -12 -4 -19 -1 -8 3 -5 6 6 6 11
1 17 -2 13 -5z m103 -15 c0 -5 -9 -9 -21 -9 -14 0 -19 -5 -16 -14 4 -10 1 -13
-9 -9 -27 10 -16 38 16 39 17 1 30 -3 30 -7z m17 -51 c-3 -8 -6 -5 -6 6 -1 11
2 17 5 13 3 -3 4 -12 1 -19z m1673 18 c0 -3 -4 -8 -10 -11 -5 -3 -10 -1 -10 4
0 6 5 11 10 11 6 0 10 -2 10 -4z m-1873 -88 c-3 -8 -6 -5 -6 6 -1 11 2 17 5
13 3 -3 4 -12 1 -19z m2190 -20 c-3 -8 -6 -5 -6 6 -1 11 2 17 5 13 3 -3 4 -12
1 -19z m-1346 -615 c-12 -20 -14 -14 -5 12 4 9 9 14 11 11 3 -2 0 -13 -6 -23z
m-1438 -409 c-3 -8 1 -14 11 -14 12 0 16 -9 15 -32 0 -18 -3 -26 -6 -18 -3 8
-17 25 -30 37 -29 27 -31 53 -4 46 12 -3 17 -11 14 -19z m153 -162 c-43 -4
-51 1 -43 23 6 13 10 13 43 -3 l37 -17 -37 -3z m2338 -98 c48 -7 64 -24 22
-24 -14 0 -28 -4 -31 -10 -3 -5 -21 -10 -40 -10 -19 0 -45 -5 -59 -11 -19 -9
-29 -8 -47 5 l-23 15 35 14 c72 30 73 30 143 21z m-1951 -186 c10 -9 34 -19
53 -23 19 -3 34 -10 34 -15 0 -23 -34 -10 -153 58 -21 12 -45 22 -55 22 -14 0
-14 2 -3 9 15 10 92 -21 124 -51z m-241 -78 c10 0 18 -7 18 -15 0 -10 -6 -12
-17 -8 -21 8 -43 28 -43 39 0 5 5 3 12 -4 7 -7 20 -12 30 -12z m1548 -80 c0
-6 -13 -10 -29 -10 -17 0 -33 -5 -36 -10 -4 -6 -10 -8 -15 -5 -11 7 -40 -5
-40 -16 0 -5 11 -7 24 -3 13 3 27 1 30 -4 3 -5 -3 -12 -14 -15 -11 -3 -27 -18
-37 -34 -9 -16 -31 -39 -49 -51 -30 -20 -32 -20 -37 -3 -5 22 2 35 23 44 8 4
-1 4 -21 1 -22 -4 -39 -1 -43 5 -4 6 -15 11 -25 11 -9 0 -30 13 -45 29 -34 36
-30 37 108 47 59 4 109 10 111 14 7 11 95 11 95 0z m-796 -92 c17 -72 17 -78
2 -94 -16 -15 -15 -17 4 -34 27 -23 27 -60 -1 -60 -11 0 -29 -5 -40 -10 -17
-10 -19 -7 -19 24 0 19 8 42 17 52 16 16 15 17 -17 10 -19 -3 -42 -8 -50 -9
-9 -2 -21 -7 -28 -11 -19 -12 -42 1 -42 22 0 22 -25 47 -38 38 -12 -7 -52 22
-52 40 0 8 -6 14 -12 14 -20 1 24 30 44 30 10 0 18 5 18 10 0 6 16 10 35 10
19 0 35 -4 35 -10 0 -5 -5 -10 -11 -10 -14 0 11 -24 34 -33 9 -3 18 -17 18
-29 1 -17 2 -18 6 -5 3 12 11 15 29 11 21 -5 24 -3 24 19 0 18 -7 27 -25 31
-21 5 -25 12 -25 42 0 35 1 35 38 32 l37 -3 19 -77z m185 -17 c10 -6 11 -13 2
-29 -6 -11 -11 -30 -11 -41 0 -25 -36 -51 -72 -51 -32 0 -32 1 -14 55 20 58
61 87 95 66z m471 -97 c0 -2 -9 -4 -20 -4 -11 0 -20 4 -20 9 0 5 9 7 20 4 11
-3 20 -7 20 -9z m-750 -34 c0 -5 -4 -10 -10 -10 -5 0 -10 5 -10 10 0 6 5 10
10 10 6 0 10 -4 10 -10z"/>
<path d="M3140 5029 c0 -5 5 -7 10 -4 6 3 10 8 10 11 0 2 -4 4 -10 4 -5 0 -10
-5 -10 -11z"/>
<path d="M2710 4950 c0 -5 5 -10 10 -10 6 0 10 5 10 10 0 6 -4 10 -10 10 -5 0
-10 -4 -10 -10z"/>
<path d="M2745 4930 c3 -5 8 -10 11 -10 2 0 4 5 4 10 0 6 -5 10 -11 10 -5 0
-7 -4 -4 -10z"/>
<path d="M2685 4904 c9 -9 19 -13 23 -10 3 4 0 11 -8 16 -24 15 -33 11 -15 -6z"/>
<path d="M3200 4909 c-8 -8 -23 -18 -32 -22 -24 -9 -23 -27 2 -27 11 0 20 4
20 9 0 5 8 7 19 4 10 -3 22 0 25 6 4 6 3 11 -3 11 -5 0 -11 8 -13 17 -3 15 -5
15 -18 2z"/>
<path d="M3100 4820 c0 -11 5 -20 10 -20 6 0 10 9 10 20 0 11 -4 20 -10 20 -5
0 -10 -9 -10 -20z"/>
<path d="M2980 4780 c0 -5 5 -10 10 -10 6 0 10 5 10 10 0 6 -4 10 -10 10 -5 0
-10 -4 -10 -10z"/>
<path d="M3290 4780 c0 -5 5 -10 10 -10 6 0 10 5 10 10 0 6 -4 10 -10 10 -5 0
-10 -4 -10 -10z"/>
<path d="M2992 4685 c-11 -13 -9 -15 8 -15 11 0 20 7 20 15 0 19 -11 19 -28 0z"/>
<path d="M3120 4619 c0 -5 5 -7 10 -4 6 3 10 8 10 11 0 2 -4 4 -10 4 -5 0 -10
-5 -10 -11z"/>
<path d="M3092 4569 c2 -6 8 -10 13 -10 5 0 11 4 13 10 2 6 -4 11 -13 11 -9 0
-15 -5 -13 -11z"/>
<path d="M3035 4540 c-3 -5 -1 -10 4 -10 6 0 11 5 11 10 0 6 -2 10 -4 10 -3 0
-8 -4 -11 -10z"/>
<path d="M900 3900 c-8 -5 -11 -12 -7 -16 4 -4 13 -2 19 4 15 15 7 24 -12 12z"/>
<path d="M937 3886 c-4 -10 -1 -13 9 -9 15 6 19 23 5 23 -5 0 -11 -7 -14 -14z"/>
<path d="M1903 1533 c-7 -2 -13 -12 -13 -20 0 -14 2 -15 18 -1 9 9 24 18 32
21 10 4 9 5 -5 5 -11 0 -26 -2 -32 -5z"/>
<path d="M1170 5980 c0 -5 -7 -10 -15 -10 -8 0 -15 -4 -15 -10 0 -18 39 -10
50 10 9 16 8 20 -5 20 -8 0 -15 -4 -15 -10z"/>
<path d="M3210 5670 c0 -5 5 -10 10 -10 6 0 10 5 10 10 0 6 -4 10 -10 10 -5 0
-10 -4 -10 -10z"/>
<path d="M840 5300 c0 -11 5 -20 10 -20 6 0 10 9 10 20 0 11 -4 20 -10 20 -5
0 -10 -9 -10 -20z"/>
<path d="M310 5170 c0 -5 5 -10 10 -10 6 0 10 5 10 10 0 6 -4 10 -10 10 -5 0
-10 -4 -10 -10z"/>
<path d="M3825 3390 c-3 -5 -1 -10 4 -10 6 0 11 5 11 10 0 6 -2 10 -4 10 -3 0
-8 -4 -11 -10z"/>
<path d="M3875 3350 c3 -5 8 -10 11 -10 2 0 4 5 4 10 0 6 -5 10 -11 10 -5 0
-7 -4 -4 -10z"/>
</g>
</svg>
